# xmcd
#
# Track frame offsets:
#	150
#	17584
#	32772
#	49798
#	67210
#	81324
#	102679
#	120975
#	139187
#	155234
#	170718
#	191896
#	210694
#	228590
#	246587
#	265910
#	282773
#	299974
#
# Disc length: 4251 seconds
#
# Revision: 0
# Processed by: cddbd v1.5.2PL0 Copyright (c) Steve Scherf et al.
# Submitted via: dBpowerAMP V4.0
#
DISCID=28109912
DTITLE=Various Artist - Modern Of Song
DYEAR=2007
DGENRE=Blues
TTITLE0=Shape Of My Heart - Backstreet Boys
TTITLE1=Mandy - Westlife
TTITLE2=Guilty - Blue
TTITLE3=Everytime - Britney Spears
TTITLE4=Don't Know Why - Norah Jones
TTITLE5=This I Promise You - N*Sync
TTITLE6=Only Love - Trademark
TTITLE7=Right To Be Wrong - Joss Stone
TTITLE8=Other Side of The World - KT Tunstall
TTITLE9=Miss You Like Crazy - The Moffats
TTITLE10=All Or Nothing - O Town
TTITLE11=The Day We Find Love - 911
TTITLE12=Michael Learns To Rock - Take me To Your Heart
TTITLE13=Angels Brought Me Here - Guy Sebastian
TTITLE14=I Promise - Stacie Orrico
TTITLE15=If You Come To Me - Atomic Kitten
TTITLE16=Stay The Same - Joey Mcintyre
TTITLE17=I Wanna Be With You - Mandy Moore
EXTD=Modern Song
EXTT0=
EXTT1=
EXTT2=
EXTT3=
EXTT4=
EXTT5=
EXTT6=
EXTT7=
EXTT8=
EXTT9=
EXTT10=
EXTT11=
EXTT12=
EXTT13=
EXTT14=
EXTT15=
EXTT16=
EXTT17=
PLAYORDER=
